PathFileType	4	(X/Y/Z)	RBDS04\RBDS04runT35.trc
DataRate	CameraRate	NumFrames	NumMarkers	Units	OrigDataRate	OrigDataStartFrame	OrigNumFrames
150.000000	150.000000	5	33	mm	150.000000	1125	4500
Frame#	Time	L.ASIS			L.Heel.Bottom			L.Heel.Lateral			L.Heel.Top			L.Iliac.Crest			L.MT1			L.MT5			L.PSIS			L.Shank.Bottom.Lateral			L.Shank.Bottom.Medial			L.Shank.Top.Lateral			L.Shank.Top.Medial			L.Thigh.Bottom.Lateral			L.Thigh.Bottom.Medial			L.Thigh.Top.Lateral			L.Thigh.Top.Medial			R.ASIS			R.ASY			R.Heel.Bottom			R.Heel.Lateral			R.Heel.Top			R.Iliac.Crest			R.MT1			R.MT5			R.PSIS			R.Shank.Bottom.Lateral			R.Shank.Bottom.Medial			R.Shank.Top.Lateral			R.Shank.Top.Medial			R.Thigh.Bottom.Lateral			R.Thigh.Bottom.Medial			R.Thigh.Top.Lateral			R.Thigh.Top.Medial			
		X1	Y1	Z1	X2	Y2	Z2	X3	Y3	Z3	X4	Y4	Z4	X5	Y5	Z5	X6	Y6	Z6	X7	Y7	Z7	X8	Y8	Z8	X9	Y9	Z9	X10	Y10	Z10	X11	Y11	Z11	X12	Y12	Z12	X13	Y13	Z13	X14	Y14	Z14	X15	Y15	Z15	X16	Y16	Z16	X17	Y17	Z17	X18	Y18	Z18	X19	Y19	Z19	X20	Y20	Z20	X21	Y21	Z21	X22	Y22	Z22	X23	Y23	Z23	X24	Y24	Z24	X25	Y25	Z25	X26	Y26	Z26	X27	Y27	Z27	X28	Y28	Z28	X29	Y29	Z29	X30	Y30	Z30	X31	Y31	Z31	X32	Y32	Z32	X33	Y33	Z33	

1126	7.500000000000001	2227.701502267514	995.664650282262	923.183720097432	2284.13337897442	66.03385671224707	953.3706536272508	2312.557966000539	86.46652534595007	910.2770465345064	2285.896855048534	113.0681942587534	949.9560259933137	2165.921600395685	1067.657587846125	871.4116178647757	2491.412778603098	121.2311929250827	986.8954683384462	2464.286481968124	95.67920043107185	891.6191773413287	2068.18328194108	1038.56327356565	969.5593734127866	2329.29491018227	225.0278821525571	895.2112648867018	2288.100421233938	219.2334089300693	924.0953871939801	2312.849452237622	302.3235318980854	879.587231479133	2269.551678548948	300.7891646920541	910.8012632947941	2267.521271457425	655.8973827184749	848.7358710819791	2211.620472174479	629.0208951583838	886.7161541323308	2210.753388242869	749.6436833635877	835.5391139960607	2158.05741950805	724.8469276337748	871.6995228625608	2223.254260630677	982.3998763975884	1111.882372534241	1661.482396213104	205.1799579773834	1058.465367225957	1577.928561717663	364.5570400419505	1044.259667101266	1587.489675421512	330.6875614712879	1084.981745046079	1621.22706817038	362.8733210370247	1057.048292065833	2185.698415262851	1057.170865211422	1144.875333502848	1643.836464608152	163.0856639342951	1006.712266145156	1598.829690553277	176.2602081197739	1093.267477877919	2071.684825239051	1041.409858603691	1056.58268632768	1696.202029904678	363.6644608715536	1112.283169295491	1679.035032349214	392.5440982175717	1069.493427749775	1749.908477783076	422.8844587521281	1127.583580484404	1732.83988876093	449.9517368179908	1084.605743946998	2009.427444461591	650.6027505852625	1156.850335336315	1958.602517282473	672.3047562014456	1107.461578707134	2034.666038384795	756.6031676384674	1174.962878997702	1985.264863280792	777.3901844107903	1128.492222148519	
1127	7.506666666666667	2227.5912121666	994.8019883917615	923.0211985243026	2297.589994367689	58.39519539437841	954.9852890976091	2324.888579616495	79.64770844753608	911.5514443224661	2296.759495927559	105.4873900615689	950.7866124139664	2165.849231882641	1066.460832346408	871.5327964401215	2502.047667169434	125.5128335431379	987.2124252701186	2476.149642851731	96.75436176396562	892.4140975024272	2068.298342870886	1037.432857878029	970.007591048291	2334.449141830924	220.8675929570363	895.6565869015652	2293.674003816235	213.2230683766751	924.8527091660372	2314.498412486661	297.4219935399281	880.0923393781122	2271.45615165447	293.9980894007127	911.5500231083017	2261.071835552021	651.0576895536173	848.5341083132962	2205.257768290021	625.989957642964	887.8873182074148	2206.531094171635	746.1849370820653	835.449677463673	2153.883204032008	723.0119151478198	872.6909993947604	2223.652474606403	982.0454656284992	1111.791653446433	1654.351966933494	215.7960543344716	1057.476382764226	1574.152629256911	377.1074251921436	1046.914508262387	1583.859610682943	342.6094946221554	1086.967586958552	1617.652933477805	374.1863883203789	1058.507062669374	2185.313967437022	1057.036037257045	1144.83789860482	1634.738363860539	174.6668626492227	1005.779933802997	1591.731339328812	188.087495516266	1093.549383530175	2071.895032858741	1040.490218771492	1057.038240392328	1694.249056024594	372.309872534946	1112.343721479336	1678.033777483795	402.2058307387546	1069.85044265418	1750.585251304503	429.1106935811275	1127.733392496044	1734.380434228894	457.1691088834654	1085.015679312708	2014.840561912979	646.9072219073485	1157.059572420415	1963.302946255851	668.0644931966751	1108.081833694879	2038.530015882678	753.1204144259453	1175.428388650211	1987.987162284383	773.4779046918824	1129.82648212561	
1128	7.513333333333334	2227.438618451918	993.5880636484304	922.8831314424399	2308.016931955405	51.86295472945672	956.9602504459016	2334.268463639424	73.56926035918386	913.1058688195686	2305.039278274255	98.90181414460044	951.9203317923283	2165.734548184475	1064.943853926897	871.678994130536	2509.80686520093	128.8813922849352	987.4000416339268	2484.844178897456	97.06402963910466	893.1933972170837	2068.332357884114	1035.849073823764	970.4788490832948	2337.758919954612	216.9076013070746	896.2127295886901	2297.425504319547	207.7311818822526	925.7389090686244	2314.854491303628	292.7434618285826	880.7207680666439	2272.137141186199	287.7496506617749	912.4621679064775	2255.046937005394	646.3511724699489	848.4983808492458	2199.316842512185	622.9339133517653	889.0208027295248	2202.609532251055	742.7292935894949	835.5113143886754	2149.997981393435	721.0357101013242	873.658593797879	2224.000909777383	981.1393164747843	1111.702528059116	1648.502140892773	226.3404414686469	1056.709538826561	1571.657283350312	389.4433927288965	1049.334612056974	1581.430663132086	354.3855064679193	1088.833270859624	1615.320168780534	385.3377241599661	1059.862559917876	2184.856537534081	1056.283397147846	1144.863215566498	1627.037789920605	186.1299847273617	1005.103688051446	1585.886437402266	199.8557527397975	1093.995283179246	2072.042758899231	1039.02331423438	1057.521322963802	1693.369681375258	380.7548773745341	1112.361302343774	1678.243819146358	411.5384269922429	1070.074309670729	1752.235546181717	435.0048688981847	1127.819409401392	1737.052332426392	463.9245598247351	1085.263756772524	2020.492780204985	642.5301183256587	1157.241733905966	1968.471298062553	662.9613650596681	1108.414493363262	2042.410629994387	748.9933483309263	1175.726017678287	1990.95830433447	768.7360325696058	1130.746597829217	
1129	7.52	2227.240677104799	991.9993056008942	922.7491430048034	2315.10817905791	46.31370455042142	959.2704096221581	2340.44828771876	68.11771888005329	914.9335864475769	2310.52833533763	93.22795042724539	953.3850358771701	2165.556733702283	1063.099458389537	871.8336278257336	2514.671979941881	130.8118910393418	987.508022067432	2490.254775590091	96.2286770102618	893.9705210372476	2068.260373894208	1033.78423466256	970.9667021329143	2339.205567650959	212.9610499380832	896.895799594604	2299.302234281065	202.6025336312371	926.7643123869854	2313.959209904565	288.1651562755809	881.473895127014	2271.595555815592	281.9576942867072	913.5304616984206	2249.585370311904	641.8061502742183	848.6768368930609	2193.894690938171	619.8287262922062	890.0977282948587	2199.061446182875	739.2743837478893	835.7547741472318	2146.443968520431	718.8733764852242	874.5920196849275	2224.287572101541	979.6720391475869	1111.606304311034	1643.971030037755	236.7310706247106	1056.288729127285	1570.663835221725	401.5511495843327	1051.366175733166	1580.327823645097	366.0287687053043	1090.476706238547	1614.434205013961	396.2880155977308	1061.054271156679	2184.367599754517	1054.885479926945	1144.954293881803	1620.811033405676	197.3583118744266	1004.809489114957	1581.271860128592	211.5610752262599	1094.62340651258	2072.111449732888	1036.987892041635	1058.03026671343	1693.644797714772	388.9373178130774	1112.366948887743	1679.740445164177	420.4433646852091	1070.18007707328	1754.914187326784	440.519795138986	1127.856850436021	1740.90090135554	470.1384746191582	1085.355140173543	2026.340786123275	637.5247426327862	1157.414530195225	1974.080177209191	657.06195453027	1108.468236683441	2046.29911092065	744.2665142449667	1175.866459504622	1994.18967704651	763.2177304160102	1131.243607609623	
1130	7.526666666666667	2226.989047581963	990.0097401268497	922.5993666182596	2318.642595365727	41.63152464901625	961.8678899346047	2343.257991252151	63.21640343978101	917.0189347467513	2313.083231846777	88.38697050872364	955.2049923183196	2165.290845875134	1060.902507012828	871.9784607137784	2516.663288540124	130.8723857432485	987.6170269447019	2492.331254997077	93.99696771331844	894.7714422055778	2068.053415566223	1031.211613851242	971.4665522329733	2338.807420633892	208.8609213131831	897.7389605598676	2299.288702578712	197.6923591669111	927.9483189280102	2311.878458822962	283.5721358623976	882.3652592590864	2269.854840562683	276.5347494846681	914.7502601079173	2244.801949607645	637.4262839831115	849.0972624751074	2189.069460230591	616.6362351156223	891.097032250603	2195.939965533355	735.7982188228334	836.1864958027714	2143.248910691555	716.4683071279336	875.4683723180128	2224.497065886104	977.6406710573071	1111.495798063344	1640.783645523222	246.8913478580273	1056.306124550118	1571.332378549668	413.3899886273609	1052.882008026848	1580.644073279869	377.5296851753953	1091.807280644465	1615.140621197718	406.9791884567869	1062.018390136823	2183.883932977922	1052.828637845499	1145.109860723262	1616.103928026925	208.2441435620939	1004.993982502052	1577.872509015777	223.2013241685421	1095.45014118118	2072.077898063137	1034.362935991255	1058.56225259959	1695.139255100218	396.7927458240968	1112.38548261115	1682.57195258504	428.8348305572419	1070.188282535328	1758.668528987233	445.6047548000564	1127.859888634289	1745.952836437543	475.7414980857862	1085.304186918136	2032.365625909287	631.9346309141554	1157.597963560009	1980.099153942895	650.4305662442212	1108.281456260877	2050.209161503963	738.9742467858969	1175.877379335411	1997.69219086741	756.9727847802302	1131.348118346696	
